<?xml version="1.0" standalone="no"?><svg xmlns="http://www.w3.org/2000/svg" viewBox="0 0 1440 320"><path fill="#0099ff" fill-opacity="1" d="M0,64L26.7,90.7C53.3,117,107,171,160,181.3C213.3,192,267,160,320,122.7C373.3,85,427,43,480,58.7C533.3,75,587,149,640,192C693.3,235,747,245,800,234.7C853.3,224,907,192,960,160C1013.3,128,1067,96,1120,106.7C1173.3,117,1227,171,1280,186.7C1333.3,203,1387,181,1413,170.7L1440,160L1440,0L1413.3,0C1386.7,0,1333,0,1280,0C1226.7,0,1173,0,1120,0C1066.7,0,1013,0,960,0C906.7,0,853,0,800,0C746.7,0,693,0,640,0C586.7,0,533,0,480,0C426.7,0,373,0,320,0C266.7,0,213,0,160,0C106.7,0,53,0,27,0L0,0Z"></path></svg>